<svg width="25" height="26" viewBox="0 0 25 26" fill="none" xmlns="http://www.w3.org/2000/svg">
<path d="M18.9524 25.0024C22.2398 25.0024 24.9048 22.3374 24.9048 19.05C24.9048 15.7626 22.2398 13.0977 18.9524 13.0977C15.665 13.0977 13 15.7626 13 19.05C13 22.3374 15.665 25.0024 18.9524 25.0024Z" fill="#F5F5F5"/>
<path d="M19.1241 11.9526C19.9608 11.9526 20.7616 12.108 21.5146 12.3709V7.17154L14.3431 0H2.39051C1.06378 0 0 1.06378 0 2.39051V19.1241C0 19.7581 0.251857 20.3662 0.700165 20.8145C1.14847 21.2628 1.75651 21.5146 2.39051 21.5146H12.3709C12.108 20.7616 11.9526 19.9608 11.9526 19.1241C11.9526 15.1678 15.1678 11.9526 19.1241 11.9526ZM13.1478 1.79289L19.7217 8.3668H13.1478V1.79289Z" fill="white"/>
<path d="M22.2122 13.9707C21.2763 13.3932 20.201 13.0547 19.0261 13.0547V13.9707H22.2122Z" fill="#ED4C5C"/>
<path d="M19.0261 14.8887H23.3273C22.9888 14.5502 22.6105 14.2315 22.2122 13.9727H19.0261V14.8887Z" fill="white"/>
<path d="M19.0261 15.8027H24.0641C23.8451 15.4642 23.6061 15.1655 23.3472 14.8867H19.0261V15.8027Z" fill="#ED4C5C"/>
<path d="M19.0261 16.7207H24.542C24.4026 16.4021 24.2433 16.0835 24.0641 15.8047H19.0261V16.7207Z" fill="white"/>
<path d="M19.0261 17.6348H24.8407C24.7611 17.3162 24.6615 17.0175 24.542 16.7188H19.0261V17.6348Z" fill="#ED4C5C"/>
<path d="M19.0261 18.5723H24.9801C24.9602 18.2537 24.9005 17.955 24.8407 17.6562H19.0261V18.5723" fill="white"/>
<path d="M24.9801 18.5742H19.0261V19.0322H13.0522C13.0522 19.1915 13.0522 19.3309 13.0722 19.4902H24.9801C25 19.3309 25 19.1915 25 19.0322C25 18.8729 25 18.7136 24.9801 18.5742" fill="#ED4C5C"/>
<path d="M13.2114 20.4043H24.8406C24.9202 20.1056 24.9601 19.8069 24.98 19.4883H13.072C13.0919 19.787 13.1517 20.1056 13.2114 20.4043Z" fill="white"/>
<path d="M13.5104 21.3223H24.5422C24.6616 21.0236 24.7612 20.7249 24.8409 20.4062H13.2117C13.2913 20.7249 13.3909 21.0236 13.5104 21.3223Z" fill="#ED4C5C"/>
<path d="M13.9882 22.2324H24.0641C24.2434 21.9337 24.4027 21.635 24.542 21.3164H13.5103C13.6496 21.635 13.8089 21.9337 13.9882 22.2324" fill="white"/>
<path d="M14.7049 23.1504H23.3471C23.606 22.8716 23.8649 22.553 24.064 22.2344H13.988C14.1872 22.5729 14.446 22.8716 14.7049 23.1504Z" fill="#ED4C5C"/>
<path d="M15.8202 24.0645H22.2322C22.6504 23.8056 23.0088 23.487 23.3473 23.1484H14.7051C15.0436 23.5069 15.4219 23.8056 15.8202 24.0645Z" fill="white"/>
<path d="M19.0261 25.0023C20.2009 25.0023 21.2961 24.6638 22.232 24.0664H15.8201C16.756 24.6638 17.8512 25.0023 19.0261 25.0023Z" fill="#ED4C5C"/>
<path d="M15.8401 13.9707C15.4219 14.2296 15.0435 14.5482 14.705 14.8867C14.4262 15.1655 14.1873 15.4841 13.9882 15.8028C13.8089 16.1015 13.6297 16.4002 13.5102 16.7188C13.3908 17.0175 13.2912 17.3162 13.2115 17.6348C13.1319 17.9335 13.0921 18.2322 13.0722 18.5508C13.0522 18.7101 13.0522 18.8695 13.0522 19.0288H19.0261V13.0547C17.8513 13.0547 16.776 13.3932 15.8401 13.9707Z" fill="#428BC1"/>
<path d="M17.6325 13.2539L17.7321 13.5526H18.0308L17.7918 13.7517L17.8715 14.0504L17.6325 13.8712L17.3935 14.0504L17.4732 13.7517L17.2342 13.5526H17.5329L17.6325 13.2539ZM18.429 14.4487L18.5286 14.7474H18.8273L18.5883 14.9466L18.668 15.2453L18.429 15.066L18.1901 15.2453L18.2697 14.9466L18.0308 14.7474H18.3295L18.429 14.4487ZM16.836 14.4487L16.9355 14.7474H17.2342L16.9953 14.9466L17.0749 15.2453L16.836 15.066L16.597 15.2453L16.6767 14.9466L16.4377 14.7474H16.7364L16.836 14.4487ZM17.6325 15.6435L17.7321 15.9422H18.0308L17.7918 16.1414L17.8715 16.4401L17.6325 16.2609L17.3935 16.4401L17.4732 16.1414L17.2342 15.9422H17.5329L17.6325 15.6435ZM16.0395 15.6435L16.139 15.9422H16.4377L16.1988 16.1414L16.2784 16.4401L16.0395 16.2609L15.8005 16.4401L15.8802 16.1414L15.6412 15.9422H15.9399L16.0395 15.6435ZM14.4464 15.6435L14.546 15.9422H14.8447L14.6057 16.1414L14.6854 16.4401L14.4464 16.2609L14.2075 16.4401L14.2871 16.1414L14.0482 15.9422H14.3469L14.4464 15.6435ZM18.429 16.8384L18.5286 17.1371H18.8273L18.5883 17.3362L18.668 17.6349L18.429 17.4557L18.1901 17.6349L18.2697 17.3362L18.0308 17.1371H18.3295L18.429 16.8384ZM16.836 16.8384L16.9355 17.1371H17.2342L16.9953 17.3362L17.0749 17.6349L16.836 17.4557L16.597 17.6349L16.6767 17.3362L16.4377 17.1371H16.7364L16.836 16.8384ZM15.2429 16.8384L15.3425 17.1371H15.6412L15.4022 17.3362L15.4819 17.6349L15.2429 17.4557L15.004 17.6349L15.0836 17.3362L14.8447 17.1371H15.1434L15.2429 16.8384ZM17.6325 18.0332L17.7321 18.3319H18.0308L17.7918 18.531L17.8715 18.8297L17.6325 18.6505L17.3935 18.8297L17.4732 18.531L17.2342 18.3319H17.5329L17.6325 18.0332ZM16.0395 18.0332L16.139 18.3319H16.4377L16.1988 18.531L16.2784 18.8297L16.0395 18.6505L15.8005 18.8297L15.8802 18.531L15.6412 18.3319H15.9399L16.0395 18.0332ZM14.4464 18.0332L14.546 18.3319H14.8447L14.6057 18.531L14.6854 18.8297L14.4464 18.6505L14.2075 18.8297L14.2871 18.531L14.0482 18.3319H14.3469L14.4464 18.0332ZM15.004 15.2453L15.2429 15.066L15.4819 15.2453L15.3823 14.9466L15.6213 14.7474H15.3226L15.2429 14.4487L15.1434 14.7474H14.8646L15.1036 14.9266L15.004 15.2453M13.411 17.6349L13.6499 17.4557L13.8889 17.6349L13.7893 17.3362L14.0283 17.1371H13.7495L13.6499 16.8384L13.5503 17.1371H13.3512C13.3512 17.157 13.3313 17.1769 13.3313 17.1968L13.4906 17.3163L13.411 17.6349" fill="white"/>
</svg>
