<svg width="25" height="26" viewBox="0 0 25 26" fill="none" xmlns="http://www.w3.org/2000/svg">
<path d="M19.0476 11.9048C19.881 11.9048 20.6786 12.0595 21.4286 12.3214V7.14286L14.2857 0H2.38095C1.05952 0 0 1.05952 0 2.38095V19.0476C0 19.6791 0.25085 20.2847 0.697365 20.7312C1.14388 21.1777 1.74948 21.4286 2.38095 21.4286H12.3214C12.0595 20.6786 11.9048 19.881 11.9048 19.0476C11.9048 15.1071 15.1071 11.9048 19.0476 11.9048ZM13.0952 1.78571L19.6429 8.33333H13.0952V1.78571Z" fill="white"/>
<path d="M19.0476 25.0024C22.335 25.0024 25 22.3374 25 19.05C25 15.7626 22.335 13.0977 19.0476 13.0977C15.7602 13.0977 13.0952 15.7626 13.0952 19.05C13.0952 22.3374 15.7602 25.0024 19.0476 25.0024Z" fill="#F5F5F5"/>
<path d="M17.3417 19.3869C17.8973 19.7639 18.6711 19.6051 19.0481 19.0496C19.4251 18.494 20.179 18.3353 20.7544 18.7123C21.2901 19.0694 21.4489 19.7639 21.1513 20.2996C21.806 19.1885 21.5084 17.7401 20.3973 17.0059C19.2663 16.252 17.7386 16.5496 16.9846 17.6805C16.9502 17.7493 16.9064 17.8145 16.8792 17.8864C16.6704 18.4365 16.8574 19.0516 17.3417 19.3869Z" fill="#ED4C5C"/>
<path d="M21.0913 20.4195C21.1111 20.3798 21.131 20.3402 21.1508 20.3203C21.131 20.3402 21.1111 20.3798 21.0913 20.4195Z" fill="#003478"/>
<path d="M20.7538 18.7096C20.1983 18.3326 19.4245 18.4913 19.0475 19.0469C18.6705 19.6024 17.9165 19.7612 17.3411 19.3842C16.8054 19.027 16.6467 18.3326 16.9443 17.7969C16.2697 18.908 16.5872 20.3564 17.6983 21.0905C18.8292 21.8445 20.357 21.5469 21.111 20.4159C21.1453 20.3472 21.1891 20.2819 21.2164 20.2101C21.4252 19.66 21.2381 19.0449 20.7538 18.7096Z" fill="#428BC1"/>
<path d="M14.1069 17.2246C14.1829 17.2789 14.2888 17.2596 14.3408 17.182L15.5198 15.4219C15.5728 15.3429 15.5533 15.2362 15.476 15.1809C15.3977 15.1362 15.2982 15.1596 15.248 15.2345L14.057 17.0123C14.0089 17.0841 14.0319 17.1817 14.1069 17.2246ZM14.6228 17.5817C14.7009 17.6264 14.8002 17.6027 14.8498 17.5276L16.032 15.7368C16.0756 15.6708 16.0577 15.582 15.9918 15.5381C15.9158 15.4838 15.8099 15.503 15.7579 15.5807L14.5789 17.3407C14.526 17.4197 14.5454 17.5265 14.6228 17.5817ZM16.4879 15.8754C16.412 15.8212 16.3063 15.8408 16.2549 15.9186L15.0938 17.6774C15.0413 17.7569 15.0611 17.8637 15.1387 17.919C15.2168 17.9637 15.3161 17.94 15.3657 17.8649L16.5386 16.0882C16.5863 16.0159 16.5631 15.9184 16.4879 15.8754ZM22.3212 21.1333C22.3972 21.1876 22.503 21.1682 22.5548 21.0905L23.0003 20.4221C23.0531 20.343 23.0335 20.2362 22.9561 20.1809C22.8779 20.1362 22.7785 20.1597 22.7285 20.2347L22.271 20.9208C22.2231 20.9928 22.2461 21.0904 22.3212 21.1333ZM23.9879 20.8754C23.9119 20.8211 23.8061 20.8405 23.7543 20.9182L23.3087 21.5865C23.256 21.6657 23.2755 21.7725 23.3529 21.8278C23.4311 21.8724 23.5306 21.849 23.5806 21.774L24.038 21.0878C24.086 21.0159 24.063 20.9183 23.9879 20.8754ZM22.8371 21.4706C22.913 21.5249 23.0188 21.5055 23.0706 21.4278L23.5162 20.7595C23.569 20.6803 23.5494 20.5735 23.472 20.5182C23.3938 20.4735 23.2943 20.497 23.2444 20.572L22.7869 21.2581C22.7389 21.3301 22.762 21.4277 22.8371 21.4706ZM22.2418 21.2722C22.1636 21.2275 22.0642 21.251 22.0142 21.3259L21.5568 22.0121C21.5088 22.0841 21.5318 22.1817 21.6069 22.2246C21.6829 22.2788 21.7887 22.2595 21.8405 22.1818L22.286 21.5134C22.3388 21.4343 22.3192 21.3275 22.2418 21.2722ZM22.7379 21.6095C22.6721 21.5657 22.5833 21.5834 22.5394 21.6492L22.0633 22.3635C22.0194 22.4292 22.0372 22.518 22.1029 22.5619C22.1789 22.6161 22.2847 22.5968 22.3365 22.5191L22.7821 21.8507C22.8348 21.7716 22.8153 21.6648 22.7379 21.6095ZM23.2537 21.9468C23.1755 21.9021 23.0761 21.9256 23.0261 22.0005L22.5746 22.6778C22.5218 22.757 22.5414 22.8637 22.6188 22.919C22.697 22.9637 22.7965 22.9402 22.8464 22.8653L23.2979 22.188C23.3507 22.1089 23.3312 22.0021 23.2537 21.9468ZM14.1069 20.8754C14.0319 20.9183 14.0089 21.0158 14.057 21.0876L15.248 22.8655C15.2982 22.9404 15.3977 22.9637 15.476 22.919C15.5533 22.8638 15.5728 22.757 15.5198 22.678L14.3408 20.918C14.2888 20.8404 14.1829 20.8211 14.1069 20.8754ZM15.3569 21.6095C15.2795 21.6648 15.2599 21.7716 15.3127 21.8507L15.7583 22.5191C15.81 22.5968 15.9159 22.6161 15.9918 22.5619C16.0576 22.518 16.0753 22.4292 16.0315 22.3635L15.5553 21.6492C15.5115 21.5834 15.4227 21.5657 15.3569 21.6095ZM15.1387 20.1809C15.0611 20.2363 15.0413 20.3431 15.0938 20.4226L16.2549 22.1813C16.3063 22.2592 16.412 22.2788 16.4879 22.2246C16.5631 22.1816 16.5863 22.084 16.5386 22.0117L15.3657 20.2351C15.3161 20.16 15.2168 20.1363 15.1387 20.1809ZM14.6228 20.5182C14.5454 20.5735 14.5258 20.6803 14.5786 20.7595L15.0241 21.4278C15.0759 21.5055 15.1817 21.5249 15.2577 21.4706C15.3328 21.4277 15.3558 21.3301 15.3079 21.2581L14.8504 20.572C14.8004 20.497 14.701 20.4735 14.6228 20.5182ZM23.2537 16.1531C23.3312 16.0978 23.3507 15.9911 23.2979 15.9119L22.8464 15.2347C22.7965 15.1597 22.697 15.1362 22.6188 15.1809C22.5414 15.2362 22.5218 15.343 22.5746 15.4221L23.0261 16.0994C23.0761 16.1744 23.1755 16.1978 23.2537 16.1531ZM22.2418 16.8278C22.3192 16.7725 22.3388 16.6657 22.286 16.5865L21.8405 15.9182C21.7887 15.8405 21.6829 15.8211 21.6069 15.8754C21.5318 15.9183 21.5088 16.0159 21.5568 16.0878L22.0142 16.774C22.0642 16.849 22.1636 16.8724 22.2418 16.8278ZM23.3529 16.2722C23.2755 16.3275 23.256 16.4343 23.3087 16.5134L23.7543 17.1818C23.8061 17.2595 23.9119 17.2788 23.9879 17.2246C24.063 17.1817 24.086 17.0841 24.038 17.0121L23.5806 16.3259C23.5306 16.251 23.4311 16.2275 23.3529 16.2722ZM23.472 17.5817C23.5494 17.5265 23.5688 17.4197 23.5159 17.3407L22.3368 15.5807C22.2848 15.503 22.179 15.4838 22.1029 15.5381C22.0371 15.582 22.0191 15.6708 22.0627 15.7368L23.245 17.5276C23.2945 17.6027 23.3939 17.6264 23.472 17.5817ZM22.9561 17.919C23.0335 17.8637 23.0531 17.757 23.0003 17.6778L22.5548 17.0095C22.503 16.9318 22.3972 16.9124 22.3212 16.9666C22.2461 17.0096 22.2231 17.1071 22.271 17.1791L22.7285 17.8653C22.7785 17.9402 22.8779 17.9637 22.9561 17.919Z" fill="#3E4347"/>
</svg>
